; NON-PLATED HOLES START AT T1
; THROUGH (PLATED) HOLES START AT T100
M48
INCH
T1C0.086614
T100C0.035000
T101C0.040000
T102C0.098425
T103C0.015748
T104C0.046472
T105C0.039370
T106C0.038000
%
T1
X049212Y000805
X000787Y000805
X000787Y042538
X049212Y042538
T100
X011000Y026325
X009000Y026325
X009000Y022325
X011000Y022325
T101
X048000Y037325
X048000Y035325
T102
X029326Y004061
X011930Y039775
X003930Y039775
X041669Y015266
X029326Y011061
T103
X006999Y027325
X026000Y027325
X042000Y026325
X027000Y003325
X026000Y024325
X028000Y027325
X006999Y023325
X031000Y025325
X004999Y026325
X009999Y001325
X041000Y025325
X001000Y037325
X012000Y019325
X030000Y002325
X028000Y024325
X022000Y027325
X030000Y026325
X029000Y001325
X034000Y001325
X021000Y026325
X037037Y042288
X027000Y026325
X036000Y026325
X008999Y025325
X001000Y034325
X027000Y024325
X011000Y009325
T104
X005000Y011325
X011000Y011325
X004000Y011325
X004000Y020325
X003000Y020325
X011000Y020325
X009999Y011325
X002000Y020325
X006000Y011325
X006000Y020325
X005000Y020325
X002000Y011325
X009000Y011325
X009999Y020325
X003000Y011325
X008000Y020325
X008000Y011325
X007000Y020325
X009000Y020325
X007000Y011325
T105
X036826Y003561
X040000Y036325
X008622Y039325
X024015Y036183
X017547Y003573
X044826Y003561
X037000Y036325
X025047Y012223
X040826Y010561
X045826Y004561
X045000Y019325
X024015Y029184
X016015Y033183
X039826Y003561
X035826Y010561
X045826Y010561
X045669Y015766
X032826Y004561
X021047Y012223
X038826Y010561
X037826Y011561
X035826Y011561
X046826Y006203
X042000Y019325
X024015Y025183
X038826Y004561
X022047Y012223
X037826Y010561
X016015Y037183
X043826Y011561
X024047Y012223
X035000Y038325
X016015Y025183
X016015Y029184
X037826Y003561
X046000Y019325
X042826Y003561
X045669Y013766
X016015Y039183
X037826Y004561
X007430Y030825
X039000Y038325
X040000Y040325
X033826Y004561
X036826Y011561
X024047Y002223
X016015Y032184
X035826Y004561
X007250Y039325
X046826Y007581
X024015Y035183
X046826Y008959
X034826Y007061
X044000Y026325
X035000Y040325
X016015Y036183
X016015Y038183
X040000Y038325
X042826Y004561
X016015Y035183
X041826Y010561
X022047Y002223
X043826Y004561
X041826Y011561
X047000Y019325
X043826Y010561
X024015Y031184
X023047Y002223
X038826Y003561
X020047Y012223
X036000Y036325
X016015Y031184
X005430Y030825
X038000Y040325
X017047Y012223
X032826Y003561
X024015Y030184
X045669Y014766
X038000Y038325
X016015Y026183
X006430Y030825
X046000Y026325
X043000Y019325
X024015Y033183
X016015Y040183
X024015Y028183
X037000Y038325
X033826Y003561
X036000Y038325
X037000Y040325
X016015Y028183
X021047Y002223
X041826Y004561
X011430Y030825
X031826Y003561
X034826Y010561
X045669Y016766
X034000Y040325
X045826Y003561
X038826Y011561
X038000Y036325
X016015Y027183
X034000Y038325
X039000Y036325
X018047Y012223
X042826Y010561
X036826Y004561
X023047Y012223
X034826Y003561
X036000Y040325
X035826Y003561
X010430Y030825
X009430Y030825
X024015Y026183
X008430Y030825
X039826Y010561
X045826Y011561
X041826Y003561
X024015Y034183
X036826Y010561
X039826Y011561
X043826Y003561
X045000Y026325
X016015Y034183
X044826Y010561
X043000Y026325
X040826Y003561
X040826Y011561
X031826Y004561
X025047Y002223
X005872Y039325
X039000Y040325
X034000Y036325
X044826Y011561
X034826Y011561
X040826Y004561
X044826Y004561
X010000Y039325
X035000Y036325
X019047Y012223
X024015Y027183
X030826Y003561
X030826Y004561
X016015Y030184
X034826Y004561
X004430Y030825
X024015Y032184
X044000Y019325
X042826Y011561
X039826Y004561
T106
X036000Y031325
X035000Y031325
X039000Y031325
X035826Y013010
X038000Y031325
X035000Y033325
X037000Y031325
X036000Y033325
X039000Y033325
X037000Y033325
X038000Y033325
T00
M30
