G04 MADE WITH FRITZING*
G04 WWW.FRITZING.ORG*
G04 DOUBLE SIDED*
G04 HOLES PLATED*
G04 CONTOUR ON CENTER OF CONTOUR VECTOR*
%ASAXBY*%
%FSLAX23Y23*%
%MOIN*%
%OFA0B0*%
%SFA1.0B1.0*%
%ADD10C,0.066000*%
%ADD11C,0.070000*%
%ADD12C,0.076000*%
%ADD13C,0.150000*%
%ADD14C,0.086000*%
%ADD15C,0.138425*%
%ADD16C,0.078000*%
%ADD17C,0.080000*%
%ADD18C,0.053528*%
%ADD19C,0.075000*%
%ADD20C,0.039370*%
%ADD21R,0.076000X0.076000*%
%ADD22R,0.080000X0.080000*%
%ADD23C,0.024000*%
%ADD24C,0.048000*%
%LNCOPPER0*%
G90*
G70*
G54D10*
X1602Y2518D03*
X1602Y2618D03*
X1602Y2718D03*
X1602Y2818D03*
X1602Y2918D03*
X1602Y3018D03*
X1602Y3118D03*
X1602Y3218D03*
X1602Y3318D03*
X1602Y3418D03*
X1602Y3518D03*
X1602Y3618D03*
X1602Y3718D03*
X1602Y3818D03*
X1602Y3918D03*
X1602Y4018D03*
X2402Y3618D03*
X2402Y3518D03*
X2402Y3418D03*
X2402Y3318D03*
X2402Y3218D03*
X2402Y3118D03*
X2402Y3018D03*
X2402Y2918D03*
X2402Y2818D03*
X2402Y2718D03*
X2402Y2618D03*
X2402Y2518D03*
G54D11*
X2505Y222D03*
X2405Y222D03*
X2305Y222D03*
X2205Y222D03*
X2105Y222D03*
G54D10*
X1755Y357D03*
G54D11*
X2505Y1222D03*
X2405Y1222D03*
X2305Y1222D03*
X2205Y1222D03*
X2105Y1222D03*
X2005Y1222D03*
X1905Y1222D03*
X1805Y1222D03*
X1705Y1222D03*
G54D12*
X4000Y3833D03*
X3900Y3833D03*
X3800Y3833D03*
X3700Y3833D03*
X3600Y3833D03*
X3500Y3833D03*
X3400Y3833D03*
X4000Y4033D03*
X3900Y4033D03*
X3800Y4033D03*
X3700Y4033D03*
X3600Y4033D03*
X3500Y4033D03*
X3400Y4033D03*
X4000Y3633D03*
X3900Y3633D03*
X3800Y3633D03*
X3700Y3633D03*
X3600Y3633D03*
X3500Y3633D03*
X3400Y3633D03*
X4200Y1933D03*
X4300Y1933D03*
X4400Y1933D03*
X4500Y1933D03*
X4600Y1933D03*
X4700Y1933D03*
X4300Y2633D03*
X4400Y2633D03*
X4500Y2633D03*
X4600Y2633D03*
G54D11*
X4283Y356D03*
G54D13*
X2933Y1106D03*
G54D11*
X4183Y1156D03*
G54D14*
X4683Y758D03*
G54D11*
X4583Y1156D03*
X3783Y1156D03*
G54D10*
X4583Y456D03*
X4483Y456D03*
X4383Y456D03*
X4283Y456D03*
G54D11*
X4083Y356D03*
G54D10*
X4183Y456D03*
G54D11*
X4483Y356D03*
G54D10*
X4083Y456D03*
G54D11*
X4383Y1156D03*
G54D10*
X3983Y456D03*
G54D11*
X3983Y1156D03*
G54D10*
X3883Y456D03*
G54D11*
X3583Y1156D03*
G54D10*
X3783Y456D03*
X3683Y456D03*
X3583Y456D03*
X3483Y456D03*
X3383Y456D03*
X3283Y456D03*
X3183Y456D03*
G54D11*
X3983Y356D03*
G54D10*
X3083Y456D03*
G54D11*
X4183Y356D03*
G54D10*
X3483Y706D03*
G54D11*
X4383Y356D03*
G54D10*
X3483Y1056D03*
G54D11*
X4583Y356D03*
G54D10*
X3583Y1056D03*
G54D11*
X4483Y1156D03*
G54D10*
X3683Y1056D03*
G54D11*
X4283Y1156D03*
G54D10*
X3783Y1056D03*
G54D11*
X4083Y1156D03*
G54D10*
X3883Y1056D03*
G54D11*
X3883Y1156D03*
G54D10*
X3983Y1056D03*
G54D11*
X3683Y1156D03*
G54D10*
X4083Y1056D03*
G54D11*
X3483Y1156D03*
G54D10*
X4183Y1056D03*
G54D13*
X2933Y406D03*
G54D10*
X4283Y1056D03*
X4383Y1056D03*
X4483Y1056D03*
X4583Y1056D03*
G54D11*
X3083Y356D03*
X3183Y356D03*
X3283Y356D03*
X3383Y356D03*
X3483Y356D03*
X3583Y356D03*
X3683Y356D03*
G54D14*
X4683Y896D03*
G54D11*
X3783Y356D03*
G54D14*
X4683Y620D03*
G54D11*
X3883Y356D03*
G54D15*
X4167Y1527D03*
G54D10*
X4567Y1677D03*
X4567Y1577D03*
X4567Y1477D03*
X4567Y1377D03*
G54D16*
X3500Y3333D03*
X3600Y3333D03*
X3700Y3333D03*
X3800Y3333D03*
X3900Y3333D03*
G54D17*
X4800Y3733D03*
X4800Y3533D03*
G54D18*
X200Y1133D03*
X300Y1133D03*
X400Y1133D03*
X500Y1133D03*
X600Y1133D03*
X700Y1133D03*
X800Y1133D03*
X900Y1133D03*
X1000Y1133D03*
X1100Y1133D03*
X200Y2033D03*
X300Y2033D03*
X400Y2033D03*
X500Y2033D03*
X600Y2033D03*
X700Y2033D03*
X800Y2033D03*
X900Y2033D03*
X1000Y2033D03*
X1100Y2033D03*
G54D16*
X3583Y1301D03*
X3500Y3133D03*
X3600Y3133D03*
X3700Y3133D03*
X3800Y3133D03*
X3900Y3133D03*
G54D14*
X587Y3933D03*
G54D15*
X393Y3978D03*
G54D14*
X862Y3933D03*
G54D11*
X443Y3083D03*
X543Y3083D03*
G54D15*
X1193Y3978D03*
G54D11*
X643Y3083D03*
X743Y3083D03*
X843Y3083D03*
X943Y3083D03*
X1043Y3083D03*
X1143Y3083D03*
G54D14*
X1000Y3933D03*
X725Y3933D03*
G54D19*
X900Y2633D03*
X900Y2233D03*
X1100Y2633D03*
X1100Y2233D03*
G54D20*
X1100Y933D03*
X2700Y333D03*
X3000Y233D03*
X500Y2633D03*
X700Y2733D03*
X900Y2533D03*
X700Y2333D03*
X4200Y2633D03*
X2100Y2633D03*
X2200Y2733D03*
X2700Y2433D03*
X2700Y2633D03*
X2600Y2733D03*
X2600Y2433D03*
X2800Y2733D03*
X2800Y2433D03*
X3000Y2633D03*
X3100Y2533D03*
X4100Y2533D03*
X3600Y2633D03*
X2900Y133D03*
X1000Y133D03*
X100Y3433D03*
X100Y3733D03*
X3704Y4229D03*
X1200Y1933D03*
X3000Y233D03*
X3400Y133D03*
G54D21*
X4000Y3833D03*
X4000Y4033D03*
X4000Y3633D03*
G54D22*
X4800Y3733D03*
G54D23*
X3900Y4002D02*
X3900Y3833D01*
G54D24*
D02*
X3383Y414D02*
X3383Y398D01*
G54D23*
D02*
X3900Y3802D02*
X3900Y3633D01*
D02*
X3800Y3733D02*
X3900Y3633D01*
D02*
X3722Y3654D02*
X3800Y3733D01*
G54D24*
D02*
X1000Y1133D02*
X1585Y2480D01*
D02*
X1000Y133D02*
X1000Y1133D01*
D02*
X1000Y1087D02*
X1000Y133D01*
D02*
X1000Y163D02*
X1000Y1087D01*
D02*
X2870Y133D02*
X1030Y133D01*
D02*
X2422Y1184D02*
X2888Y160D01*
D02*
X400Y3233D02*
X514Y3113D01*
D02*
X125Y3416D02*
X400Y3233D01*
D02*
X100Y3702D02*
X100Y3463D01*
D02*
X1560Y3719D02*
X130Y3732D01*
D02*
X2523Y1185D02*
X2987Y259D01*
D02*
X4404Y231D02*
X4698Y534D01*
D02*
X3030Y233D02*
X4404Y231D01*
D02*
X4698Y534D02*
X4450Y1338D01*
D02*
X4450Y1338D02*
X4540Y1445D01*
D02*
X1200Y333D02*
X2670Y333D01*
D02*
X1100Y433D02*
X1200Y333D01*
D02*
X1100Y902D02*
X1100Y433D01*
D02*
X1100Y2233D02*
X940Y2233D01*
D02*
X1200Y1933D02*
X1200Y2133D01*
D02*
X1200Y2133D02*
X1100Y2233D01*
D02*
X900Y1133D02*
X1200Y1933D01*
D02*
X1189Y1904D02*
X900Y1133D01*
D02*
X1200Y2133D02*
X1200Y1963D01*
D02*
X1128Y2204D02*
X1200Y2133D01*
D02*
X500Y2733D02*
X900Y2233D01*
D02*
X450Y3041D02*
X500Y2733D01*
G54D23*
D02*
X1000Y2833D02*
X765Y3061D01*
D02*
X1583Y3194D02*
X1300Y2833D01*
D02*
X1300Y2833D02*
X1000Y2833D01*
D02*
X1000Y2933D02*
X865Y3061D01*
D02*
X1583Y3294D02*
X1300Y2933D01*
D02*
X1300Y2933D02*
X1000Y2933D01*
D02*
X1000Y3033D02*
X966Y3062D01*
D02*
X1304Y3030D02*
X1000Y3033D01*
D02*
X1583Y3394D02*
X1304Y3030D01*
D02*
X1577Y3499D02*
X1067Y3102D01*
D02*
X1598Y3549D02*
X1600Y3533D01*
D02*
X487Y2619D02*
X400Y2533D01*
D02*
X1418Y2719D02*
X719Y2732D01*
D02*
X400Y2533D02*
X400Y2067D01*
D02*
X1598Y2749D02*
X1600Y2733D01*
D02*
X700Y2233D02*
X785Y2063D01*
D02*
X700Y2314D02*
X700Y2233D01*
D02*
X1598Y2649D02*
X1600Y2633D01*
D02*
X4000Y3633D02*
X4000Y3802D01*
D02*
X4000Y4002D02*
X4000Y3633D01*
D02*
X1800Y2833D02*
X1800Y1452D01*
D02*
X1630Y2906D02*
X1800Y2833D01*
D02*
X2099Y2614D02*
X2007Y1253D01*
D02*
X2199Y2714D02*
X2107Y1253D01*
D02*
X2600Y3833D02*
X2500Y3733D01*
D02*
X2500Y2733D02*
X2422Y2642D01*
D02*
X2800Y3833D02*
X2600Y3833D01*
D02*
X2500Y3733D02*
X2500Y2733D01*
D02*
X3400Y3633D02*
X2800Y3833D01*
D02*
X2700Y2614D02*
X2700Y2452D01*
D02*
X2800Y2714D02*
X2800Y2452D01*
D02*
X2600Y2452D02*
X2600Y2714D01*
D02*
X2700Y2833D02*
X2500Y2733D01*
D02*
X2900Y2733D02*
X2700Y2833D01*
D02*
X2987Y2646D02*
X2900Y2733D01*
D02*
X2600Y3833D02*
X2800Y3833D01*
D02*
X2500Y2733D02*
X2500Y3733D01*
D02*
X2800Y3833D02*
X3400Y3633D01*
D02*
X2500Y3733D02*
X2600Y3833D01*
D02*
X3600Y3302D02*
X3600Y3163D01*
D02*
X3800Y3163D02*
X3800Y3302D01*
D02*
X3779Y3154D02*
X3621Y3311D01*
D02*
X3779Y3311D02*
X3621Y3154D01*
D02*
X3610Y3361D02*
X3690Y3603D01*
D02*
X3890Y3603D02*
X3810Y3361D01*
D02*
X3200Y2733D02*
X3200Y2633D01*
D02*
X3200Y2633D02*
X3113Y2546D01*
D02*
X2700Y3733D02*
X2600Y3633D01*
D02*
X2700Y2933D02*
X3200Y2733D01*
D02*
X3400Y3533D02*
X2800Y3733D01*
D02*
X3478Y3611D02*
X3400Y3533D01*
D02*
X2600Y3633D02*
X2700Y2933D01*
D02*
X2800Y3733D02*
X2700Y3733D01*
D02*
X3119Y2533D02*
X4081Y2533D01*
D02*
X4181Y2633D02*
X3619Y2633D01*
G54D24*
D02*
X4922Y594D02*
X4883Y1260D01*
D02*
X4883Y1260D02*
X4606Y1362D01*
D02*
X4404Y130D02*
X4922Y594D01*
D02*
X2930Y133D02*
X3370Y133D01*
D02*
X3430Y132D02*
X4404Y130D01*
D02*
X100Y3402D02*
X101Y836D01*
D02*
X101Y836D02*
X698Y130D01*
D02*
X698Y130D02*
X970Y132D01*
D02*
X3800Y4133D02*
X3870Y4062D01*
D02*
X100Y3833D02*
X500Y4233D01*
D02*
X500Y4233D02*
X3674Y4229D01*
D02*
X3725Y4208D02*
X3800Y4133D01*
D02*
X100Y3763D02*
X100Y3833D01*
D02*
X4900Y3633D02*
X4830Y3703D01*
D02*
X4761Y1499D02*
X4906Y1833D01*
D02*
X4906Y1833D02*
X4900Y3633D01*
D02*
X4602Y1399D02*
X4761Y1499D01*
D02*
X4597Y4030D02*
X4776Y3767D01*
D02*
X4000Y4233D02*
X4404Y4232D01*
D02*
X4597Y4131D02*
X4597Y4030D01*
D02*
X4404Y4232D02*
X4597Y4131D01*
D02*
X3734Y4229D02*
X4000Y4233D01*
D02*
X4800Y3433D02*
X4800Y3490D01*
D02*
X4800Y1833D02*
X4800Y3433D01*
D02*
X4683Y1577D02*
X4800Y1833D01*
D02*
X4609Y1577D02*
X4683Y1577D01*
G54D23*
D02*
X900Y1133D02*
X1193Y1915D01*
D02*
X1808Y1416D02*
X1891Y1250D01*
D02*
X1571Y2719D02*
X719Y2732D01*
D02*
X919Y2535D02*
X1571Y2615D01*
G04 End of Copper0*
M02*