G04 MADE WITH FRITZING*
G04 WWW.FRITZING.ORG*
G04 DOUBLE SIDED*
G04 HOLES PLATED*
G04 CONTOUR ON CENTER OF CONTOUR VECTOR*
%ASAXBY*%
%FSLAX23Y23*%
%MOIN*%
%OFA0B0*%
%SFA1.0B1.0*%
%ADD10C,0.076000*%
%ADD11C,0.080000*%
%ADD12C,0.086000*%
%ADD13C,0.160000*%
%ADD14C,0.096000*%
%ADD15C,0.148425*%
%ADD16C,0.088000*%
%ADD17C,0.090000*%
%ADD18C,0.063528*%
%ADD19C,0.085000*%
%ADD20C,0.049370*%
%ADD21C,0.096614*%
%ADD22R,0.086000X0.086000*%
%ADD23R,0.090000X0.090000*%
%LNMASK0*%
G90*
G70*
G54D10*
X1602Y2518D03*
X1602Y2618D03*
X1602Y2718D03*
X1602Y2818D03*
X1602Y2918D03*
X1602Y3018D03*
X1602Y3118D03*
X1602Y3218D03*
X1602Y3318D03*
X1602Y3418D03*
X1602Y3518D03*
X1602Y3618D03*
X1602Y3718D03*
X1602Y3818D03*
X1602Y3918D03*
X1602Y4018D03*
X2402Y3618D03*
X2402Y3518D03*
X2402Y3418D03*
X2402Y3318D03*
X2402Y3218D03*
X2402Y3118D03*
X2402Y3018D03*
X2402Y2918D03*
X2402Y2818D03*
X2402Y2718D03*
X2402Y2618D03*
X2402Y2518D03*
G54D11*
X2505Y222D03*
X2405Y222D03*
X2305Y222D03*
X2205Y222D03*
X2105Y222D03*
G54D10*
X1755Y357D03*
G54D11*
X2505Y1222D03*
X2405Y1222D03*
X2305Y1222D03*
X2205Y1222D03*
X2105Y1222D03*
X2005Y1222D03*
X1905Y1222D03*
X1805Y1222D03*
X1705Y1222D03*
G54D12*
X4000Y3833D03*
X3900Y3833D03*
X3800Y3833D03*
X3700Y3833D03*
X3600Y3833D03*
X3500Y3833D03*
X3400Y3833D03*
X4000Y4033D03*
X3900Y4033D03*
X3800Y4033D03*
X3700Y4033D03*
X3600Y4033D03*
X3500Y4033D03*
X3400Y4033D03*
X4000Y3633D03*
X3900Y3633D03*
X3800Y3633D03*
X3700Y3633D03*
X3600Y3633D03*
X3500Y3633D03*
X3400Y3633D03*
X4200Y1933D03*
X4300Y1933D03*
X4400Y1933D03*
X4500Y1933D03*
X4600Y1933D03*
X4700Y1933D03*
X4300Y2633D03*
X4400Y2633D03*
X4500Y2633D03*
X4600Y2633D03*
G54D11*
X4283Y356D03*
G54D13*
X2933Y1106D03*
G54D11*
X4183Y1156D03*
G54D14*
X4683Y758D03*
G54D11*
X4583Y1156D03*
X3783Y1156D03*
G54D10*
X4583Y456D03*
X4483Y456D03*
X4383Y456D03*
X4283Y456D03*
G54D11*
X4083Y356D03*
G54D10*
X4183Y456D03*
G54D11*
X4483Y356D03*
G54D10*
X4083Y456D03*
G54D11*
X4383Y1156D03*
G54D10*
X3983Y456D03*
G54D11*
X3983Y1156D03*
G54D10*
X3883Y456D03*
G54D11*
X3583Y1156D03*
G54D10*
X3783Y456D03*
X3683Y456D03*
X3583Y456D03*
X3483Y456D03*
X3383Y456D03*
X3283Y456D03*
X3183Y456D03*
G54D11*
X3983Y356D03*
G54D10*
X3083Y456D03*
G54D11*
X4183Y356D03*
G54D10*
X3483Y706D03*
G54D11*
X4383Y356D03*
G54D10*
X3483Y1056D03*
G54D11*
X4583Y356D03*
G54D10*
X3583Y1056D03*
G54D11*
X4483Y1156D03*
G54D10*
X3683Y1056D03*
G54D11*
X4283Y1156D03*
G54D10*
X3783Y1056D03*
G54D11*
X4083Y1156D03*
G54D10*
X3883Y1056D03*
G54D11*
X3883Y1156D03*
G54D10*
X3983Y1056D03*
G54D11*
X3683Y1156D03*
G54D10*
X4083Y1056D03*
G54D11*
X3483Y1156D03*
G54D10*
X4183Y1056D03*
G54D13*
X2933Y406D03*
G54D10*
X4283Y1056D03*
X4383Y1056D03*
X4483Y1056D03*
X4583Y1056D03*
G54D11*
X3083Y356D03*
X3183Y356D03*
X3283Y356D03*
X3383Y356D03*
X3483Y356D03*
X3583Y356D03*
X3683Y356D03*
G54D14*
X4683Y896D03*
G54D11*
X3783Y356D03*
G54D14*
X4683Y620D03*
G54D11*
X3883Y356D03*
G54D15*
X4167Y1527D03*
G54D10*
X4567Y1677D03*
X4567Y1577D03*
X4567Y1477D03*
X4567Y1377D03*
G54D16*
X3500Y3333D03*
X3600Y3333D03*
X3700Y3333D03*
X3800Y3333D03*
X3900Y3333D03*
G54D17*
X4800Y3733D03*
X4800Y3533D03*
G54D18*
X200Y1133D03*
X300Y1133D03*
X400Y1133D03*
X500Y1133D03*
X600Y1133D03*
X700Y1133D03*
X800Y1133D03*
X900Y1133D03*
X1000Y1133D03*
X1100Y1133D03*
X200Y2033D03*
X300Y2033D03*
X400Y2033D03*
X500Y2033D03*
X600Y2033D03*
X700Y2033D03*
X800Y2033D03*
X900Y2033D03*
X1000Y2033D03*
X1100Y2033D03*
G54D16*
X3583Y1301D03*
X3500Y3133D03*
X3600Y3133D03*
X3700Y3133D03*
X3800Y3133D03*
X3900Y3133D03*
G54D14*
X587Y3933D03*
G54D15*
X393Y3978D03*
G54D14*
X862Y3933D03*
G54D11*
X443Y3083D03*
X543Y3083D03*
G54D15*
X1193Y3978D03*
G54D11*
X643Y3083D03*
X743Y3083D03*
X843Y3083D03*
X943Y3083D03*
X1043Y3083D03*
X1143Y3083D03*
G54D14*
X1000Y3933D03*
X725Y3933D03*
G54D19*
X900Y2633D03*
X900Y2233D03*
X1100Y2633D03*
X1100Y2233D03*
G54D20*
X1100Y933D03*
X2700Y333D03*
X3000Y233D03*
X500Y2633D03*
X700Y2733D03*
X900Y2533D03*
X700Y2333D03*
X4200Y2633D03*
X2100Y2633D03*
X2200Y2733D03*
X2700Y2433D03*
X2700Y2633D03*
X2600Y2733D03*
X2600Y2433D03*
X2800Y2733D03*
X2800Y2433D03*
X3000Y2633D03*
X3100Y2533D03*
X4100Y2533D03*
X3600Y2633D03*
X2900Y133D03*
X1000Y133D03*
X100Y3433D03*
X100Y3733D03*
X3704Y4229D03*
X1200Y1933D03*
G54D21*
X79Y4254D03*
X79Y81D03*
X4921Y4254D03*
X4921Y81D03*
G54D20*
X3000Y233D03*
X3400Y133D03*
G54D22*
X4000Y3833D03*
X4000Y4033D03*
X4000Y3633D03*
G54D23*
X4800Y3733D03*
G04 End of Mask0*
M02*